# xmcd
#
# Track frame offsets: 
#        150
#        20527
#        39349
#        57381
#        76466
#        95780
#        113620
#        132387
#        151649
#        171898
#        190162
#
# Disc length: 2807 seconds
#
# Revision: 3
# Processed by: cddbd v1.5.2PL0 Copyright (c) Steve Scherf et al.
# Submitted via: ExactAudioCopyFreeDBPlugin 1.0
#
DISCID=870af50b
DTITLE=Khadja Nin - Sambolera
DYEAR=1900
DGENRE=
TTITLE0=Khadja Nin - Sambolera
TTITLE1=01. Sambolera Mayi Son  04:32
TTITLE2=02. Sina Mali, Sina Deni (Free)  04:11
TTITLE3=03. Wale Watu (Remix)  04:00
TTITLE4=04. Mama Lusiya  04:14
TTITLE5=05. Save us  04:18
TTITLE6=06. Mwana Wa Mama  03:58
TTITLE7=07. Leo Leya  04:10
TTITLE8=08. N'Barik Fall (Battlin Sept. 1922)  04:17
TTITLE9=09. Sous le Charme  04:30
TTITLE10=10. Rosy  04:04
EXTD=
EXTT0=
EXTT1=
EXTT2=
EXTT3=
EXTT4=
EXTT5=
EXTT6=
EXTT7=
EXTT8=
EXTT9=
EXTT10=
PLAYORDER=
